<?xml version="1.0" encoding="utf-8"?>
<!-- Generator: Adobe Illustrator 27.5.0, SVG Export Plug-In . SVG Version: 6.00 Build 0)  -->
<svg version="1.1" xmlns="http://www.w3.org/2000/svg" xmlns:xlink="http://www.w3.org/1999/xlink" x="0px" y="0px"
	 viewBox="0 0 750 500" style="enable-background:new 0 0 750 500;" xml:space="preserve">
<g id="BACKGROUND">
</g>
<g id="OBJECTS">
	<g>
		<defs>
			<rect id="SVGID_1_" x="28.51" y="29" width="663.979" height="423.635"/>
		</defs>
		<clipPath id="SVGID_00000000905465317093355840000002976040332114349985_">
			<use xlink:href="#SVGID_1_"  style="overflow:visible;"/>
		</clipPath>
		<path style="clip-path:url(#SVGID_00000000905465317093355840000002976040332114349985_);fill:#1DC9D6;" d="M543.852,67.138
			c-70.135,0-128.068,52.214-137.067,119.89c-36.727-28.338-82.756-45.206-132.733-45.206
			c-120.115,0-217.487,97.372-217.487,217.488c0,120.115,97.372,217.487,217.487,217.487c120.116,0,217.488-97.372,217.488-217.487
			c0-8.974-0.555-17.816-1.611-26.506c16.571,7.024,34.793,10.909,53.924,10.909c76.375,0,138.288-61.913,138.288-138.287
			C682.14,129.052,620.227,67.138,543.852,67.138z"/>
		<g style="clip-path:url(#SVGID_00000000905465317093355840000002976040332114349985_);">
			<path style="fill:#0A5265;" d="M640.185,376.144c28.606,5.493,23.2,15.389,27.225,10.862
				c6.435-7.238-15.556-48.393-37.098-81.246c26.975,5.341,21.99,16.121,25.481,11.434c5.059-6.795-10.861-43.467-27.761-75.11
				c17.877,5.566,14.436,14.776,17.13,10.379c7.573-12.357-41.968-123.562-49.581-123.562c-7.613,0-54.782,112.44-49.582,123.562
				c1.955,4.178-1.894-5.786,18.606-11.116c-16.648,32.101-32.834,69.657-29.319,75.846c2.504,4.406-2.838-6.924,26.993-11.949
				c-21.084,33.227-43.157,75.188-38.7,81.762c2.903,4.277-3.028-6.276,29.201-11.496c-20.779,31.245-40.139,66.27-35.733,72.227
				c4.143,5.601,150.899,6.135,156.846,0C680.234,441.195,661.245,406.933,640.185,376.144z"/>
			<g>
				<path style="fill:none;" d="M587.776,435.95c1.233-10.503,7.411-19.151,11.737-28.419c6.177-12.355,9.884-25.33,13.591-38.922
					c-9.266-2.47-16.681,1.236-25.947,1.855c2.47-21.624,5.561-46.954,12.974-67.96c-6.178-1.854-12.974-1.854-19.77-3.089
					c0-17.299,4.324-45.718,13.592-61.163c-2.472-0.618-5.561-1.236-8.032-1.236c0-7.414,3.089-15.445,4.943-22.858
					c6.128-25.741,12.857-58.773,4.521-85.233c-8.192,1.831-54.54,112.508-49.385,123.538c1.955,4.178-1.894-5.786,18.606-11.116
					c-16.648,32.101-32.834,69.657-29.319,75.846c2.504,4.406-2.838-6.924,26.993-11.949c-21.084,33.227-43.157,75.188-38.7,81.762
					c2.903,4.277-3.028-6.276,29.201-11.496c-20.779,31.245-40.139,66.27-35.733,72.227c1.974,2.669,36.337,4.188,72.415,4.383
					C587.903,447.036,587.266,441.634,587.776,435.95z"/>
				<g>
					<path style="fill:#0C7AAA;" d="M579.943,237.944c3.815,3.089,11.538-0.309,14.01,0.309
						c-9.268,15.445-15.755,57.147-13.592,61.163c2.162,4.016,13.592,1.235,19.77,3.089c-7.413,21.006-15.467,62.317-13.306,66.333
						c2.163,4.016,17.014-2.698,26.279-0.228c-3.707,13.592-7.414,26.567-13.591,38.922c-4.326,9.267-10.504,17.916-11.737,28.419
						c-0.511,5.684,0.127,11.086,1.686,16.169c39.626,0.212,81.317-1.171,84.431-4.383c6.341-6.541-12.648-40.804-33.708-71.593
						c28.606,5.493,23.2,15.389,27.225,10.862c6.435-7.238-15.556-48.393-37.098-81.246c26.975,5.341,21.99,16.121,25.481,11.434
						c5.059-6.795-10.861-43.467-27.761-75.11c17.877,5.566,14.436,14.776,17.13,10.379c7.573-12.357-41.968-123.562-49.581-123.562
						c-0.063,0-0.13,0.009-0.197,0.024C603.722,155.385,576.13,234.855,579.943,237.944z"/>
				</g>
			</g>
		</g>
		<g style="clip-path:url(#SVGID_00000000905465317093355840000002976040332114349985_);">
			<path style="fill:#267F44;" d="M413.676,392.941c22.283,4.279,18.072,11.987,21.208,8.461
				c5.011-5.639-12.117-37.696-28.899-63.287c21.013,4.16,17.131,12.558,19.851,8.906c3.939-5.294-8.462-33.859-21.624-58.509
				c13.924,4.337,11.244,11.51,13.343,8.086c5.9-9.626-32.692-96.251-38.622-96.251c-5.93,0-42.673,87.587-38.622,96.251
				c1.522,3.254-1.477-4.507,14.493-8.659c-12.968,25.006-25.576,54.261-22.839,59.082c1.951,3.432-2.21-5.394,21.027-9.309
				c-16.424,25.883-33.618,58.569-30.147,63.689c2.262,3.332-2.359-4.89,22.747-8.954c-16.186,24.338-31.267,51.622-27.835,56.262
				c3.227,4.362,117.546,4.779,122.176,0C444.872,443.615,430.082,416.926,413.676,392.941z"/>
			<g>
				<path style="fill:none;" d="M372.851,439.528c0.961-8.181,5.773-14.918,9.145-22.137c4.81-9.624,7.697-19.731,10.587-30.318
					c-7.218-1.925-12.995,0.962-20.213,1.444c1.924-16.845,4.332-36.576,10.106-52.939c-4.813-1.443-10.106-1.443-15.398-2.405
					c0-13.477,3.366-35.613,10.586-47.645c-1.924-0.481-4.33-0.963-6.256-0.963c0-5.775,2.406-12.031,3.851-17.806
					c4.773-20.051,10.017-45.783,3.521-66.394c-6.382,1.426-42.485,87.64-38.469,96.232c1.522,3.254-1.477-4.507,14.493-8.659
					c-12.968,25.006-25.576,54.261-22.839,59.082c1.951,3.432-2.21-5.394,21.027-9.309c-16.424,25.883-33.618,58.569-30.147,63.689
					c2.262,3.332-2.359-4.89,22.747-8.954c-16.186,24.338-31.267,51.622-27.835,56.262c1.538,2.079,28.305,3.262,56.408,3.414
					C372.95,448.165,372.454,443.956,372.851,439.528z"/>
				<g>
					<path style="fill:#42B26A;" d="M366.749,285.288c2.972,2.407,8.989-0.24,10.913,0.241
						c-7.22,12.031-12.272,44.516-10.586,47.645c1.684,3.127,10.586,0.962,15.398,2.405c-5.773,16.362-12.047,48.544-10.364,51.671
						c1.684,3.129,13.254-2.102,20.472-0.177c-2.89,10.587-5.777,20.694-10.587,30.318c-3.371,7.219-8.183,13.956-9.145,22.137
						c-0.397,4.428,0.1,8.637,1.313,12.596c30.868,0.165,63.344-0.913,65.769-3.414c4.94-5.095-9.851-31.784-26.257-55.769
						c22.283,4.279,18.072,11.987,21.208,8.461c5.011-5.639-12.117-37.696-28.899-63.287c21.013,4.16,17.131,12.558,19.851,8.906
						c3.939-5.294-8.462-33.859-21.624-58.509c13.924,4.337,11.244,11.51,13.343,8.086c5.9-9.626-32.692-96.251-38.622-96.251
						c-0.049,0-0.102,0.007-0.153,0.019C385.273,220.978,363.779,282.882,366.749,285.288z"/>
				</g>
			</g>
		</g>
		<path style="clip-path:url(#SVGID_00000000905465317093355840000002976040332114349985_);fill:#1DC9D6;" d="M432.686,70.738
			c0-5.358-4.342-9.701-9.7-9.701c-0.525,0-1.036,0.054-1.54,0.134c-0.822-3.065-3.612-5.326-6.936-5.326
			c-1.041,0-2.027,0.226-2.921,0.624c-1.83-2.752-4.959-4.568-8.511-4.568c-5.36,0-9.752,4.127-10.18,9.377
			c-0.684-0.154-1.393-0.241-2.124-0.241c-5.357,0-9.699,4.343-9.699,9.701c0,5.358,4.342,9.701,9.699,9.701h33.518v-0.097
			C429.031,79.702,432.686,75.651,432.686,70.738z"/>
		<g style="clip-path:url(#SVGID_00000000905465317093355840000002976040332114349985_);">
			<polygon style="fill:#D8CAB2;" points="624.023,323.175 440.353,445.72 287.555,166.525 471.225,43.981 			"/>
			<polygon style="fill:#D8CAB2;" points="287.555,166.525 487.323,49.424 514.541,99.155 			"/>
			<polygon style="fill:#D8CAB2;" points="287.555,166.525 479.19,46.101 490.376,66.543 			"/>
			
				<rect x="349.405" y="90.096" transform="matrix(0.8772 -0.4801 0.4801 0.8772 -62.2044 255.2311)" style="fill:#FEFCE4;" width="237" height="318.273"/>
			<polyline style="fill:none;stroke:#EFE5D0;stroke-miterlimit:10;" points="487.323,49.424 287.555,166.525 479.19,46.101 			"/>
			
				<text transform="matrix(0.8772 -0.4801 0.4801 0.8772 329.3886 205.0082)" style="fill:#0A5265; font-family:'LibreBaskerville-Regular'; font-size:38.5318px;">NEWS</text>
			
				<line style="fill:none;stroke:#0A5265;stroke-width:2;stroke-miterlimit:10;" x1="311.697" y1="172.75" x2="493.923" y2="73.021"/>
			
				<line style="fill:none;stroke:#0A5265;stroke-width:2;stroke-miterlimit:10;" x1="447.58" y1="421.037" x2="629.806" y2="321.31"/>
			
				<line style="fill:none;stroke:#0A5265;stroke-width:2;stroke-miterlimit:10;" x1="331.958" y1="209.771" x2="447.625" y2="146.468"/>
			
				<rect x="458.437" y="71.869" transform="matrix(0.8772 -0.4801 0.4801 0.8772 22.4429 237.4622)" style="fill:#0A5265;" width="34.1" height="5.967"/>
			
				<rect x="345.044" y="181.228" transform="matrix(0.8772 -0.4801 0.4801 0.8772 -53.6339 223.9214)" style="fill:#00C69C;" width="131.855" height="71.185"/>
			
				<rect x="458.596" y="132.783" transform="matrix(0.8772 -0.4801 0.4801 0.8772 -5.3468 252.7177)" style="fill:#1F98D7;" width="65.644" height="8.058"/>
			
				<rect x="464.4" y="143.387" transform="matrix(0.8772 -0.4801 0.4801 0.8772 -9.7233 256.812)" style="fill:#1F98D7;" width="65.644" height="8.057"/>
			
				<rect x="470.202" y="153.99" transform="matrix(0.8772 -0.4801 0.4801 0.8772 -14.1023 260.8961)" style="fill:#1F98D7;" width="65.644" height="8.058"/>
			
				<rect x="476.005" y="164.593" transform="matrix(0.8772 -0.4801 0.4801 0.8772 -18.4815 264.9777)" style="fill:#1F98D7;" width="65.643" height="8.059"/>
			
				<rect x="481.808" y="175.197" transform="matrix(0.8772 -0.4801 0.4801 0.8772 -22.8584 269.0725)" style="fill:#1F98D7;" width="65.642" height="8.058"/>
			
				<rect x="484.839" y="189.159" transform="matrix(0.8772 -0.4801 0.4801 0.8772 -64.2206 292.5829)" style="fill:#FFC6B6;" width="110.188" height="165.387"/>
			
				<rect x="381.066" y="261.121" transform="matrix(0.8772 -0.4801 0.4801 0.8772 -85.7292 240.3044)" style="fill:#FF8C00;" width="91.786" height="53.283"/>
			
				<line style="fill:none;stroke:#0A5265;stroke-width:2;stroke-miterlimit:10;" x1="385.071" y1="289.063" x2="451.13" y2="252.909"/>
			
				<line style="fill:none;stroke:#0A5265;stroke-width:2;stroke-miterlimit:10;" x1="389.572" y1="297.289" x2="455.633" y2="261.137"/>
			
				<line style="fill:none;stroke:#0A5265;stroke-width:2;stroke-miterlimit:10;" x1="394.074" y1="305.516" x2="460.135" y2="269.361"/>
			
				<line style="fill:none;stroke:#0A5265;stroke-width:2;stroke-miterlimit:10;" x1="398.578" y1="313.743" x2="464.638" y2="277.588"/>
			
				<line style="fill:none;stroke:#0A5265;stroke-width:2;stroke-miterlimit:10;" x1="403.079" y1="321.969" x2="469.14" y2="285.815"/>
			
				<rect x="416.036" y="301.527" transform="matrix(0.8772 -0.4801 0.4801 0.8772 -107.7693 272.8862)" style="fill:#1DC9D6;" width="127.166" height="91.219"/>
			
				<rect x="488.965" y="111.442" transform="matrix(0.8772 -0.4801 0.4801 0.8772 6.7144 254.5521)" style="fill:#0A5265;" width="24.155" height="5.412"/>
			
				<rect x="493.764" y="103.544" transform="matrix(0.8772 -0.4801 0.4801 0.8772 10.5793 253.8637)" style="fill:#0A5265;" width="15.63" height="5.412"/>
		</g>
		<g style="clip-path:url(#SVGID_00000000905465317093355840000002976040332114349985_);">
			<polygon style="fill:#FFFEFF;" points="238.568,441.168 322.21,446.912 411.359,441.168 411.359,435.208 238.568,435.208 			"/>
			<path style="fill:#D8CAB2;" d="M228.695,437.124c0,6.679,42.18,12.094,94.211,12.094c52.032,0,94.211-5.415,94.211-12.094
				c0-6.681-42.179,6.196-94.211,6.196C270.875,443.32,228.695,430.443,228.695,437.124z"/>
			<g>
				<path style="fill:#633500;" d="M264.687,393.297c-2.144-11.949-2.758-23.897,5.208-34.009c3.677-4.9,7.966-9.19,13.481-11.949
					c-7.046,11.949-2.757,26.962,9.192,34.315c6.127,3.677,13.173,4.289,19.914,6.128c11.029,3.064,11.029,13.174,3.37,20.526
					c-9.498,9.19-20.835,4.289-31.862,1.533"/>
			</g>
			<path style="fill:#FEFCE4;" d="M322.628,444.195c-34.116,0-61.772-30.309-61.772-67.696h123.542
				C384.398,413.887,356.743,444.195,322.628,444.195z"/>
			<g>
				<path style="fill:#633500;" d="M283.514,356.973c4.692-0.993,14.213-3.814,16.981-9.268c2.1-3.805-2.599-8.999-6.859-7.09
					C287.72,343.267,285.008,352.455,283.514,356.973z"/>
			</g>
			<g>
				<path style="fill:#633500;" d="M273.344,350.391c1.761-1.998,5.066-6.409,4.492-9.757c-0.327-2.391-4.142-3.146-5.405-0.884
					C270.674,342.892,272.513,347.883,273.344,350.391z"/>
			</g>
			<g>
				<path style="fill:#633500;" d="M253.066,371.399c-1.489-0.232-4.599-0.467-6.02,0.826c-1.042,0.882-0.242,2.932,1.223,2.848
					C250.302,374.954,252.123,372.559,253.066,371.399z"/>
			</g>
			<g>
				<path style="fill:#633500;" d="M251.931,379.175c-1.309,0.745-3.89,2.498-4.198,4.394c-0.265,1.341,1.637,2.447,2.73,1.469
					C251.979,383.679,251.915,380.67,251.931,379.175z"/>
			</g>
			<g>
				<path style="fill:none;" d="M288.278,376.499h96.121c0,22.425-9.954,42.294-25.28,54.612
					C351.85,435.974,288.278,424.566,288.278,376.499z"/>
				<path style="fill:#D8CAB2;" d="M359.119,431.111c-10.226,8.221-22.837,13.084-36.49,13.084
					c-34.116,0-61.772-30.309-61.772-67.696h27.421C288.278,424.566,351.85,435.974,359.119,431.111z"/>
			</g>
			<g>
				<path style="fill:#FFFEFF;" d="M260.857,376.499h123.542c0,0.898-0.029,1.787-0.061,2.676H260.919
					C260.888,378.286,260.857,377.397,260.857,376.499z"/>
			</g>
			<path style="fill:#FEFCE4;" d="M364.158,400.73c0,11.18,9.063,20.241,20.241,20.241c11.178,0,20.24-9.062,20.24-20.241
				c0-11.179-9.063-20.24-20.24-20.24C373.22,380.49,364.158,389.552,364.158,400.73z M370.553,400.73
				c0-7.646,6.198-13.847,13.846-13.847c7.646,0,13.846,6.2,13.846,13.847c0,7.647-6.199,13.846-13.846,13.846
				C376.751,414.576,370.553,408.377,370.553,400.73z"/>
		</g>
		<g style="clip-path:url(#SVGID_00000000905465317093355840000002976040332114349985_);">
			<g>
				<path style="fill:#1DC9D6;" d="M289.764,283.476c-10.457-7.333-26.371,1.197-35.664-5.319c0,0-0.002,0-0.002,0l-22.037-15.454
					c-0.587-1.281-1.453-2.411-2.611-3.228c-0.979-0.652-2.364-1.304-3.587-1.142l2.767,1.963v0.001l-25.784-18.081
					c0.014-0.113,0.036-0.219,0.023-0.354c-0.082-1.141-1.632-2.935-2.528-3.587c-1.124-0.723-3.35-1.596-4.43-0.922l-7.201-5.05
					c-3.828-4.632-8.313-10.102-13.992-14.084c-10.91-7.651-17.056-8.171-19.209-5.102c-2.153,3.069,0.504,8.566,11.414,16.217
					c5.677,3.981,11.247,5.564,16.624,7.387l9.28,6.508c-0.008,0.177-0.007,0.369,0.013,0.59c0.163,1.63,0.734,3.098,1.059,4.648
					c0.05,0.227,0.059,0.462,0.058,0.699c-1.376,0.585-2.31,1.545-2.186,2.909c0.869,9.562-6.414,15.299-13.313,18.174l-0.157,0.227
					c-4.789-5.99-9.361-6.604-15.001-6.664c-0.468-0.664-0.593-2.052-0.417-2.702c2.71,1.109,2.582-5.547,2.066-7.449
					c-0.259-0.971-0.63-1.748-1.073-2.373c-0.001-0.006,0-0.01-0.001-0.016c-0.634-3.336-3.018-6.198-6.73-5.618
					c-1.624,0.233-2.9,0.928-4.06,1.973c0.116-6.033-7.657-5.337-8.933-0.233c-1.508-4.291-8.585,3.133-5.104,4.293
					c-1.973,0.812-3.712,4.292-1.044,5.452c2.205,0.928,3.248-1.274,3.016-3.133c0.899,1.997,4.536,0.728,4.427-0.921
					c1.378,2.351,4.657,1.414,6.13-0.587c-0.477,3.576,2.062,5.756,5.051,6.028c0.981,1.007,1.785,1.303,1.481,3.534
					c-0.078,0.672-0.259,1.392-0.498,2.039c-12.294,3.137-11.146,31.749-13.978,50.4c-0.05-0.018-0.098-0.032-0.148-0.052
					c-4.972,37.648-12.849,78.618-19.837,115.891c-0.241,1.287,1.656,2.256,4.708,2.924c-0.231,1.002-0.453,1.966-0.657,2.864
					l-0.018,0.078h0c-0.327,1.439-0.609,2.709-0.822,3.704c-0.169,0.793-0.321,1.496-0.454,2.13
					c-0.001,0.006-0.002,0.011-0.003,0.017c-0.086,0.412-0.162,0.786-0.23,1.139c-0.017,0.082-0.034,0.17-0.049,0.249
					c-0.022,0.118-0.041,0.227-0.061,0.337c-0.018,0.104-0.038,0.208-0.054,0.305c-0.017,0.103-0.032,0.201-0.046,0.301
					c-0.014,0.091-0.027,0.184-0.04,0.272c-0.012,0.093-0.023,0.182-0.032,0.27c-0.009,0.08-0.017,0.16-0.024,0.236
					c-0.007,0.083-0.013,0.164-0.018,0.241c-0.004,0.072-0.006,0.142-0.007,0.21c-0.001,0.07-0.003,0.143-0.002,0.209
					c0.002,0.066,0.007,0.127,0.012,0.189c0.005,0.06,0.007,0.121,0.014,0.178c0.014,0.106,0.033,0.206,0.059,0.301
					c0.012,0.043,0.029,0.082,0.043,0.125c0.019,0.051,0.036,0.104,0.058,0.152c0.019,0.04,0.042,0.076,0.063,0.113
					c0.024,0.043,0.05,0.087,0.079,0.126c0.025,0.034,0.053,0.067,0.081,0.1c0.033,0.037,0.068,0.074,0.105,0.109
					c0.031,0.028,0.063,0.057,0.096,0.083c0.044,0.033,0.09,0.066,0.138,0.099c0.035,0.022,0.07,0.046,0.107,0.068
					c0.059,0.032,0.123,0.066,0.188,0.095c0.035,0.016,0.067,0.035,0.104,0.051c0.105,0.045,0.217,0.087,0.339,0.128
					c2.087,0.696,9.309,0.869,10.063-0.087c0.754-0.957,1.306-3.161-2.987-3.741c0,0-1.994-0.116-1.751-1.276
					c0.012-0.055,0.04-0.144,0.077-0.252c0.005-0.017,0.01-0.031,0.017-0.048c0.13-0.37,0.381-0.994,0.714-1.79
					c0.395-0.943,0.904-2.121,1.46-3.395l1.291-2.923c11.014,0.646,25.238-0.728,25.027-3.89c-0.28-4.203,4.683-58.605,6.629-79.667
					l0.767-8.257c0,0,19.514,17.371,22.882,27.717c3.368,10.346,5.916,57.422,6.264,59.859c0.072,0.507,1.691,0.923,4.198,1.215
					c0.087,1.389,0.13,2.829,0.095,4.233c0,0-0.001,0.002-0.001,0.003c-0.039,1.583-0.176,3.117-0.464,4.467
					c-0.21,0.988-0.394,1.833-0.547,2.579c-0.041,0.198-0.078,0.385-0.114,0.567c-0.011,0.057-0.022,0.114-0.034,0.17
					c-0.031,0.16-0.06,0.316-0.087,0.465c-0.011,0.061-0.021,0.12-0.031,0.18c-0.025,0.145-0.05,0.286-0.071,0.418
					c-0.005,0.029-0.008,0.057-0.012,0.086c-0.042,0.277-0.074,0.53-0.094,0.763c-0.003,0.034-0.007,0.069-0.01,0.104
					c-0.007,0.095-0.01,0.181-0.014,0.269c-0.002,0.054-0.004,0.107-0.005,0.158c-0.001,0.08,0.002,0.156,0.004,0.231
					c0.002,0.05,0.005,0.098,0.009,0.146c0.006,0.068,0.013,0.136,0.022,0.199c0.007,0.045,0.016,0.088,0.025,0.129
					c0.012,0.061,0.024,0.121,0.041,0.175c0.012,0.04,0.028,0.075,0.042,0.112c0.033,0.088,0.073,0.171,0.119,0.248
					c0.024,0.039,0.046,0.078,0.072,0.115c0.026,0.036,0.058,0.066,0.087,0.101c0.032,0.034,0.063,0.069,0.099,0.102
					c0.032,0.029,0.066,0.058,0.102,0.086c0.042,0.031,0.085,0.063,0.131,0.093c0.036,0.023,0.072,0.047,0.111,0.069
					c0.057,0.031,0.118,0.06,0.181,0.091c0.035,0.017,0.068,0.035,0.105,0.051c0.104,0.043,0.213,0.085,0.332,0.126
					c2.088,0.696,9.31,0.869,10.064-0.087c0.754-0.957,1.306-3.161-2.987-3.741c0,0-1.994-0.116-1.75-1.276
					c0.011-0.055,0.039-0.144,0.076-0.252c0.006-0.017,0.011-0.031,0.016-0.048c0.13-0.367,0.38-0.988,0.71-1.778
					c0.575-1.372,1.391-3.244,2.24-5.17h0l1.635-3.683l0.016-0.035c10.073-0.028,21.733-1.276,21.534-4.464
					c-0.348-5.567-6.693-47.232-14.238-65.408c-7.544-18.177-35.642-48.907-35.642-48.907v-10.2v-4.019
					c6.234,6.442,15.708,8.877,23.749,7.771c16.009-2.206,26.081-17.205,25.709-34.337c-0.005-0.225-0.044-0.436-0.106-0.64
					l17.226,12.079c0.001,0.001,0.001,0.003,0.002,0.004c5.796,4.065,6.695,24.386,17.15,31.718
					c11.678,8.19,31.105,11.197,37.261,2.418C310.887,308.904,301.442,291.665,289.764,283.476z"/>
			</g>
			<g>
				<g>
					<path style="fill:#633500;" d="M202.468,250.749c-0.245-0.734,0-1.549-0.164-2.283c-0.326-1.55-0.897-3.018-1.06-4.648
						c-0.408-4.648,5.381,0.652,6.686,2.038c1.143,1.142,0.816,2.772,0.571,4.158"/>
				</g>
				<g>
					
						<rect x="228.662" y="187.425" transform="matrix(0.5742 -0.8187 0.8187 0.5742 -114.7149 300.9461)" style="fill:#FEFCE4;" width="6.582" height="146.656"/>
					<path style="fill:#FEFCE4;" d="M313.136,317.684c-6.156,8.779-25.583,5.772-37.261-2.418
						c-10.456-7.332-11.354-27.652-17.15-31.718c-0.899-0.631,2.882-6.022,3.781-5.392c9.293,6.517,25.207-2.014,35.664,5.319
						C309.847,291.665,319.292,308.904,313.136,317.684z"/>
					<path style="fill:#FEFCE4;" d="M163.914,213.116c2.153-3.069,8.299-2.549,19.209,5.102c9.768,6.85,16.017,18.116,21.433,21.913
						c0.839,0.59-0.483,2.475-1.322,1.887c-8.681-6.088-18.138-5.835-27.905-12.685C164.417,221.682,161.76,216.185,163.914,213.116
						z"/>
					<path style="fill:#FFFEFF;" d="M266.546,289.363c0,0,3.849,18.205,11.571,23.726c7.288,5.209,18.968,7.667,26.648,6.418
						C304.765,319.507,278.11,311.288,266.546,289.363z"/>
				</g>
				<g>
					<path style="fill:#633500;" d="M240.708,270.645c1.469-3.819,0.51-8.798-2.854-11.171c-0.978-0.652-2.364-1.304-3.587-1.142
						l2.767,1.963c0,0,0.768,4.485-3.446,5.624v6.111L240.708,270.645z"/>
				</g>
				<g>
					<path style="fill:#633500;" d="M165.479,265.23c0.517-0.794,0.903-2.062,1.032-3.171c0.387-2.854-1.032-2.536-2.323-4.596
						c-4.259-6.499,6.84-12.521,9.163-3.805c0.516,1.902,0.645,8.559-2.066,7.449c-0.258,0.951,0.129,3.486,1.291,3.012"/>
				</g>
				<g>
					<path style="fill:#FF8C00;" d="M151.888,315.473l21.977,10.46l18.28-13.043v-14.219c6.233,6.442,15.708,8.877,23.749,7.771
						c16.009-2.206,26.081-17.205,25.709-34.337c-0.09-4.136-10.355-4.843-11.44,1.622c-2.784,16.588-16.705,25.058-26.128,17.764
						c-4.661-3.608-10.678-9.91-13.412-14.956c-7.281-13.435-13.372-12.694-22.248-12.732
						C153.314,263.739,155.095,295.761,151.888,315.473"/>
				</g>
				<g>
					<path style="fill:#FF8C00;" d="M186.862,270.248c6.9-2.875,14.183-8.612,13.313-18.174c-0.423-4.648,11.412-4.648,11.412-0.845
						c0,3.804-1.129,22.074-19.088,31.948c-4.158,2.286-5.637,2.709-5.637,2.709l-1.69-13.205L186.862,270.248z"/>
				</g>
				<path style="fill:#633500;" d="M209.31,422.565c0,0,2.088,10.817,0.696,17.343c-1.257,5.89-1.623,7.134,0.464,7.831
					c2.088,0.696,9.31,0.869,10.063-0.087c0.754-0.957,1.305-3.161-2.987-3.741c0,0-1.994-0.116-1.751-1.276
					c0.243-1.16,6.855-15.776,6.855-15.776L209.31,422.565z"/>
				<path style="fill:#633500;" d="M141.073,415.024c0,0-4.42,18.358-5.811,24.884c-1.257,5.89-1.624,7.134,0.464,7.831
					c2.087,0.696,9.309,0.869,10.064-0.087c0.754-0.957,1.305-3.161-2.988-3.741c0,0-1.993-0.116-1.75-1.276
					c0.242-1.16,6.855-15.776,6.855-15.776L141.073,415.024z"/>
				<g>
					<path style="fill:#0A5265;" d="M172.278,251.27c-0.633-3.336-3.018-6.198-6.73-5.618c-1.624,0.233-2.9,0.928-4.06,1.973
						c0.116-6.033-7.657-5.337-8.932-0.233c-1.508-4.291-8.584,3.133-5.105,4.293c-1.972,0.812-3.712,4.292-1.044,5.452
						c2.204,0.928,3.249-1.274,3.016-3.133c1.044,2.32,5.8,0.232,4.061-1.738c1.044,3.363,4.872,2.436,6.497,0.23
						c-0.696,5.22,5.031,7.467,9.207,5.146c-3.132-1.158-0.749-3.957,0.073-2.362c-0.581-1.624,0.648-1.928,1.74-2.318
						C171.769,252.685,172.423,252.035,172.278,251.27z"/>
				</g>
				<g>
					<path style="fill:none;" d="M141.859,440.545L141.859,440.545c1.816-4.334,6.047-13.686,6.047-13.686l-6.833-11.834
						c0,0-4.42,18.358-5.811,24.884c-0.169,0.793-0.321,1.496-0.454,2.13L141.859,440.545z"/>
					<path style="fill:#FEFCE4;" d="M134.808,442.038c-0.856,4.079-0.889,5.099,0.918,5.701c2.087,0.696,9.309,0.869,10.064-0.087
						c0.754-0.957,1.305-3.161-2.988-3.741c0,0-1.993-0.116-1.75-1.276c0.049-0.232,0.354-1.007,0.808-2.09l0,0L134.808,442.038z"/>
				</g>
				<g>
					<path style="fill:none;" d="M210.007,439.908c-0.211,0.986-0.393,1.833-0.547,2.579l0,0l7.143-1.942l0,0
						c1.816-4.334,6.048-13.686,6.048-13.686l-13.341-4.293C209.31,422.565,211.399,433.383,210.007,439.908z"/>
					<path style="fill:#FEFCE4;" d="M209.46,442.487L209.46,442.487c-0.761,3.704-0.726,4.672,1.011,5.252
						c2.088,0.696,9.31,0.869,10.063-0.087c0.754-0.957,1.305-3.161-2.987-3.741c0,0-1.994-0.116-1.751-1.276
						c0.049-0.232,0.354-1.007,0.808-2.09l0,0L209.46,442.487z"/>
				</g>
				<polygon style="fill:#D8CAB2;" points="192.145,298.671 182.409,285.887 192.145,302.69 				"/>
				<path style="fill:#D8CAB2;" d="M210.472,435.441c0,0,1.828-3.077,8.368-0.055l1.65-3.718l-3.55-3.136l-6.468,0.947
					C210.472,429.48,210.707,432.303,210.472,435.441z"/>
				<path style="fill:#D8CAB2;" d="M136.083,436.204c0,0,5.042-2.634,7.236,0.946l1.797-4.068l-7.989-1.411L136.083,436.204z"/>
				<g>
					<path style="fill:#0A5265;" d="M151.888,314.447c-4.972,37.648-12.849,78.618-19.837,115.891
						c-1.044,5.568,37.934,5.22,37.587,0c-0.348-5.221,7.395-87.924,7.395-87.924s19.515,17.371,22.882,27.717
						c3.368,10.346,5.917,57.422,6.264,59.859c0.348,2.436,36.195,2.783,35.846-2.785c-0.348-5.567-6.692-47.232-14.237-65.408
						c-7.545-18.177-35.642-48.907-35.642-48.907S177.989,323.843,151.888,314.447z"/>
				</g>
				<polygon style="fill:#D8CAB2;" points="177.032,342.414 164.47,332.369 176.208,351.287 				"/>
				<g>
					<path style="fill:#633500;" d="M204.261,237.376c1.061-0.733,3.344,0.164,4.485,0.897c0.896,0.652,2.446,2.446,2.528,3.587
						c0.163,1.713-1.876,1.63-2.936,0.978c-1.467-0.896-1.549-2.201-1.712-3.751L204.261,237.376z"/>
				</g>
			</g>
		</g>
		<g style="clip-path:url(#SVGID_00000000905465317093355840000002976040332114349985_);">
			<g>
				<g>
					<path style="fill:#1DC9D6;" d="M244.514,157.085c-8.222,13.11-12.612,68.319-11.254,70.185
						c0.909,1.248,12.035,2.762,21.06,2.849c1.53,2.908,3.441,6.569,4.564,8.832h0c0.385,0.774,0.675,1.382,0.829,1.743
						c0.007,0.015,0.013,0.029,0.018,0.044c0.044,0.106,0.078,0.193,0.093,0.247c0.317,1.143-1.665,1.386-1.665,1.386
						c-4.247,0.854-3.556,3.019-2.742,3.924c0.814,0.908,8.009,0.272,10.048-0.556c0.116-0.047,0.222-0.095,0.322-0.147
						c0.039-0.019,0.073-0.04,0.11-0.06c0.057-0.033,0.114-0.065,0.166-0.099c0.039-0.026,0.077-0.053,0.113-0.08
						c0.041-0.031,0.08-0.062,0.117-0.095c0.036-0.032,0.071-0.064,0.102-0.097c0.031-0.032,0.057-0.066,0.084-0.099
						c0.03-0.038,0.061-0.075,0.087-0.115c0.02-0.031,0.036-0.066,0.053-0.099c0.049-0.091,0.089-0.189,0.12-0.294
						c0.009-0.031,0.02-0.06,0.028-0.092c0.014-0.059,0.021-0.122,0.031-0.186c0.005-0.04,0.011-0.079,0.015-0.121
						c0.006-0.066,0.009-0.137,0.01-0.208c0.001-0.045,0.001-0.092,0-0.139c-0.002-0.076-0.004-0.154-0.011-0.236
						c-0.003-0.048-0.009-0.099-0.014-0.149c-0.009-0.089-0.018-0.178-0.032-0.275c-0.005-0.031-0.011-0.065-0.016-0.097
						c-0.034-0.225-0.081-0.47-0.139-0.736c-0.009-0.038-0.015-0.073-0.023-0.112c-0.028-0.125-0.06-0.259-0.093-0.394
						c-0.017-0.066-0.032-0.132-0.049-0.202c-0.035-0.138-0.072-0.282-0.11-0.43c-0.018-0.069-0.037-0.141-0.056-0.212
						c-0.043-0.163-0.087-0.329-0.135-0.503c-0.002-0.01-0.005-0.019-0.007-0.029c-0.201-0.734-0.438-1.567-0.711-2.539
						c-0.719-2.555-0.931-5.822-0.926-8.832c0.058-0.023,0.124-0.044,0.179-0.068c0.274-2.28,0.385-4.872,0.405-7.653
						c2.58,0.411,6.017,0.801,9.231,0.899c2.277,2.154,4.939,4.69,6.586,6.32c0.203,0.202,0.392,0.39,0.562,0.561
						c0.002,0.003,0.004,0.005,0.007,0.007c0.165,0.168,0.314,0.319,0.442,0.453c0.006,0.006,0.013,0.014,0.019,0.02
						c0.122,0.126,0.221,0.233,0.303,0.324c0.014,0.016,0.026,0.029,0.038,0.045c0.075,0.084,0.134,0.155,0.165,0.2
						c0.67,0.979-1.128,1.85-1.128,1.85c-3.741,2.183-2.387,4.007-1.323,4.601c1.065,0.595,7.666-2.336,9.328-3.779
						c0.158-0.137,0.286-0.27,0.398-0.403c0.017-0.021,0.037-0.042,0.053-0.063c0.104-0.131,0.187-0.263,0.247-0.399
						c0.008-0.018,0.014-0.036,0.021-0.053c0.115-0.286,0.135-0.593,0.056-0.952c-0.003-0.016-0.006-0.032-0.01-0.049
						c-0.043-0.181-0.11-0.375-0.201-0.586c-0.008-0.018-0.017-0.036-0.025-0.054c-0.196-0.441-0.493-0.956-0.894-1.582
						c-0.01-0.016-0.02-0.032-0.03-0.049c-0.125-0.193-0.262-0.4-0.405-0.615c-0.044-0.066-0.091-0.136-0.137-0.204
						c-0.052-0.077-0.1-0.15-0.154-0.23h-0.001c-0.427-0.629-0.918-1.338-1.493-2.172c-1.355-1.963-2.508-4.604-3.433-7.186
						c-2.892-12.557-12.688-42.739-4.157-52.651c0.262-0.304,0.538-0.608,0.808-0.912c7.862-5.121,18.18-11.39,26.691-17.631
						c-15.302-3.414-31.208-5.226-47.54-5.226c-0.561,0-1.119,0.017-1.679,0.021C252,147.303,247.215,152.779,244.514,157.085z"/>
				</g>
			</g>
			<g>
				<g>
					<path style="fill:#FFC48A;" d="M275.344,85.186c-0.223-1.263-0.223-2.527-0.743-3.716c-0.521-1.412-3.344-5.202-4.385-2.155
						c-0.818,2.378,0.668,5.649,1.412,7.878"/>
				</g>
				<path style="fill:#FFC48A;" d="M289.133,210.081c0,0,2.222,10.79,6.011,16.282c3.42,4.957,4.237,5.965,2.577,7.41
					c-1.662,1.443-8.263,4.374-9.328,3.779c-1.064-0.593-2.419-2.418,1.323-4.601c0,0,1.797-0.871,1.127-1.85
					c-0.669-0.979-12.383-11.938-12.383-11.938L289.133,210.081z"/>
				<g>
					<path style="fill:none;" d="M295.144,226.363c0.573,0.83,1.068,1.543,1.494,2.172l0,0l-7.342,0.947l0,0
						c-3.34-3.306-10.836-10.319-10.836-10.319l10.672-9.082C289.133,210.081,291.355,220.871,295.144,226.363z"/>
					<path style="fill:#633500;" d="M296.639,228.535L296.639,228.535c2.124,3.127,2.463,4.035,1.083,5.238
						c-1.662,1.443-8.263,4.374-9.328,3.779c-1.064-0.593-2.419-2.418,1.323-4.601c0,0,1.797-0.871,1.127-1.85
						c-0.133-0.195-0.712-0.794-1.547-1.619l0,0L296.639,228.535z"/>
				</g>
				<g>
					<path style="fill:#D36E00;" d="M316.169,142.953c-10.029,6.115-21.031,14.765-28.614,23.572
						c-8.784,10.206,1.865,41.908,4.398,53.726c0.978,5.137-19.571,2.202-22.262,1.224c-4.893-1.468-2.2-10.274-2.445-14.432
						c-0.245-6.361-0.733-12.965,0.245-19.325c0.978-8.806,5.871-15.655,11.008-22.749"/>
				</g>
				<path style="fill:#FFC48A;" d="M273.416,221.475c0,0-1.391,10.929,0.416,17.351c1.631,5.798,2.078,7.016,0.039,7.845
					c-2.039,0.828-9.234,1.463-10.048,0.556c-0.814-0.906-1.506-3.07,2.741-3.924c0,0,1.982-0.243,1.666-1.386
					c-0.316-1.143-7.851-15.304-7.851-15.304L273.416,221.475z"/>
				<g>
					<path style="fill:none;" d="M273.832,238.826c0.274,0.971,0.51,1.806,0.711,2.539l0,0l-7.254-1.48l0,0
						c-2.09-4.209-6.911-13.271-6.911-13.271l13.038-5.138C273.416,221.475,272.025,232.404,273.832,238.826z"/>
					<path style="fill:#633500;" d="M274.543,241.365L274.543,241.365c0.997,3.646,1.024,4.615-0.672,5.306
						c-2.039,0.828-9.234,1.463-10.048,0.556c-0.814-0.906-1.506-3.07,2.741-3.924c0,0,1.982-0.243,1.666-1.386
						c-0.064-0.227-0.418-0.982-0.94-2.033l0,0L274.543,241.365z"/>
				</g>
				<g>
					<path style="fill:#FFC48A;" d="M323.677,67.753c-1.212-1.364-2.337-2.412-3.118-4.059c-1.477-2.98-0.799-4.852-0.301-8.025
						c0.528-3.688-1.592-7.171-5.825-7.214c-4.076-0.086-6.209,4.541-5.792,7.975c0.278,2.289,0.732,7.74,4.068,6.336
						c0.551,2.047,1.986,4.87,0.635,6.753c2.562-0.521,5.124-1.04,7.613-1.204"/>
				</g>
				<g>
					<path style="fill:#0C7AAA;" d="M321.155,65.686c11.127,38.741-43.292,61.408-55.21,24.526
						c-2.306-7.135,9.365-10.488,11.478-4.459c2.114,6.029,8.918,10.125,16.833,9.128c15.261-1.922,16.332-23.175,16.332-23.175"/>
				</g>
				<g>
					<path style="fill:#FF8C00;" d="M330.865,130.737c-2.012,12.907-43.675,33.683-52.855,42.385
						c-9.138,8.662-2.968,40.496-4.925,56.804c-5.871,2.609-30.061,0.142-31.42-1.723c-1.359-1.865,3.031-57.074,11.254-70.185
						c8.222-13.111,35.773-37.07,41.967-38.374C301.08,118.339,332.267,121.751,330.865,130.737z"/>
				</g>
				<g>
					<path style="fill:#1F98D7;" d="M282.412,127.757c9.784-14.677,9.239-32.794,16.19-48.434
						c4.892-11.007,19.358-20.569,28.184-10.273c10.943,12.677,9.762,64.751,4.116,67.503c-5.645,2.753-29.411-22.761-47.512-9.285"
						/>
				</g>
				<g>
					<path style="fill:#D8CAB2;" d="M264.622,87.324c-0.93,0.587-2.273,0.382-2.985-0.457l-14.134-16.651
						c-0.712-0.839-0.503-1.954,0.463-2.479l9.565-5.19c0.967-0.524,2.349-0.275,3.071,0.555l13.723,15.755
						c0.722,0.83,0.553,1.989-0.378,2.576L264.622,87.324z"/>
				</g>
				<g>
					<path style="fill:#633500;" d="M308.983,52.841c-1.544-0.091-0.214-2.847,0.19-3.534c1.346-2.294,4.718-3.484,7.042-2.781
						c2.17,0.657,3.004,2.927,3.004,2.927s1.347-0.497,2.211,0.926c1.306,2.15,0.11,5.353-0.985,7.167
						c-1.067,1.681-2.136,2.886-5.18,1.932c-2.348-1.079,0.059-2.961-0.307-4.319c-0.37-1.61-1.936-1.664-2.066,0.208
						c-0.302-1.945-2.099-3.33-3.63-2.665"/>
				</g>
				<path style="fill:#D8CAB2;" d="M319.406,86.627c0,0,1.221,20.578-30.34,30.067l2.181-4.781L319.406,86.627z"/>
				<g>
					<path style="fill:#1F98D7;" d="M318.244,70.146c12.913,38.739-50.383,61.407-64.213,24.525
						c-2.675-7.134,8.696-10.943,11.148-4.914c2.453,6.029,10.095,11.923,21.85,9.583c17.392-3.462,18.953-23.175,18.953-23.175"/>
				</g>
				<path style="fill:#D8CAB2;" d="M297.585,123.415c0.469,0.05,24.448,5.353,21.107,21.808c0,0,5.606-3.95,9.043-8.67
					C327.735,136.553,309.77,124.265,297.585,123.415z"/>
				<g>
					<path style="fill:#FFC48A;" d="M254.831,91.131c-2.304-2.75-2.602-7.506-1.933-11c0.15-0.817,0.298-1.858,0.892-2.527
						c1.263,1.116,1.933,2.75,3.344,3.791c0.298-1.264,1.858-3.642,3.345-2.007c1.189,1.412-0.892,3.047-1.784,3.864
						c0.744,0.595,0.297,1.487,0.372,2.305c0.074,0.445,0.148,0.966,0.372,1.337c0.148,0.371,0.892,0.817,1.04,1.19
						c0.074,0.52-0.223,0.446-0.744,0.743c-0.965,0.595-1.857,1.635-2.972,2.006"/>
				</g>
				<g>
					<path style="fill:#FFC48A;" d="M271.553,75.747c-0.818-2.452-1.264-5.723-3.939-6.986c-0.669-0.297-1.709-0.594-2.155,0.074
						L271.553,75.747z"/>
				</g>
			</g>
		</g>
		<path style="clip-path:url(#SVGID_00000000905465317093355840000002976040332114349985_);fill:#1DC9D6;" d="M176.952,118.422
			c0-7.092-5.749-12.841-12.841-12.841c-0.695,0-1.373,0.07-2.038,0.177c-1.088-4.058-4.78-7.049-9.182-7.049
			c-1.378,0-2.685,0.299-3.867,0.826c-2.423-3.644-6.564-6.046-11.268-6.046c-7.093,0-12.907,5.464-13.472,12.411
			c-0.905-0.203-1.844-0.318-2.811-0.318c-7.093,0-12.842,5.749-12.842,12.841c0,7.092,5.749,12.841,12.842,12.841h44.366v-0.129
			C172.111,130.288,176.952,124.927,176.952,118.422z"/>
		<path style="clip-path:url(#SVGID_00000000905465317093355840000002976040332114349985_);fill:#1DC9D6;" d="M109.713,77.233
			c0-3.02-2.449-5.469-5.469-5.469c-0.296,0-0.585,0.03-0.868,0.075c-0.463-1.728-2.036-3.003-3.911-3.003
			c-0.587,0-1.143,0.128-1.647,0.352c-1.032-1.552-2.796-2.575-4.798-2.575c-3.022,0-5.498,2.327-5.739,5.286
			c-0.385-0.086-0.785-0.135-1.197-0.135c-3.021,0-5.469,2.449-5.469,5.469c0,3.021,2.448,5.47,5.469,5.47h18.896v-0.055
			C107.651,82.287,109.713,80.003,109.713,77.233z"/>
		<g style="clip-path:url(#SVGID_00000000905465317093355840000002976040332114349985_);">
			<path style="fill:#1DC9D6;" d="M517.981,298.289c-0.018-0.431-0.051-0.869-0.09-1.311c-0.009-0.111-0.02-0.22-0.031-0.332
				c-0.045-0.449-0.098-0.903-0.169-1.357c-0.001-0.004-0.002-0.01-0.002-0.013c-0.07-0.448-0.159-0.896-0.257-1.341
				c-0.022-0.1-0.045-0.198-0.068-0.3c-0.215-0.907-0.496-1.793-0.854-2.633c-0.034-0.08-0.068-0.16-0.104-0.24
				c-0.377-0.838-0.838-1.619-1.394-2.32c-0.05-0.063-0.1-0.125-0.15-0.188c-0.291-0.347-0.601-0.677-0.943-0.975v-0.001
				c-0.965-0.841-2.143-1.475-3.581-1.806c-6.07-1.574-12.364,3.147-15.964,7.42c-6.208,7.006-11.115,39.15-13.894,57.239
				c-0.016-0.002-0.029-0.006-0.045-0.008c-0.703-0.113-1.353-0.127-1.958-0.061c0.003-0.036,0.005-0.07,0.009-0.105
				c0.016-0.186,0.033-0.375,0.05-0.564c0.017-0.203,0.035-0.407,0.054-0.611c0.007-0.088,0.015-0.178,0.023-0.266
				c0.056-0.628,0.113-1.263,0.172-1.902v-0.001l0,0c0.001-0.01,0.002-0.02,0.003-0.028c0.3-3.286,0.616-6.651,0.872-9.661
				c0.005-0.074,0.011-0.147,0.018-0.222c0.041-0.494,0.08-0.978,0.118-1.45c0.021-0.257,0.04-0.512,0.06-0.76
				c0.015-0.189,0.028-0.373,0.042-0.559c0.031-0.425,0.061-0.847,0.089-1.246c0.021-0.494,0.043-0.995,0.061-1.502
				c0.003-0.066,0.005-0.133,0.007-0.198c0.02-0.492,0.033-0.99,0.046-1.488c0.002-0.082,0.004-0.163,0.006-0.244
				c0.011-0.504,0.018-1.011,0.021-1.52c0.001-0.064,0-0.128,0.001-0.191c0.003-1.063-0.016-2.135-0.064-3.209
				c-0.003-0.064-0.006-0.132-0.009-0.198c-0.025-0.512-0.058-1.022-0.099-1.534c-0.007-0.085-0.013-0.17-0.021-0.254
				c-0.043-0.511-0.094-1.02-0.154-1.527c-0.009-0.067-0.019-0.134-0.026-0.202c-0.132-1.055-0.307-2.098-0.533-3.123
				c-0.015-0.07-0.028-0.141-0.045-0.21c-0.11-0.485-0.233-0.966-0.369-1.44c-0.023-0.088-0.049-0.172-0.074-0.258
				c-0.139-0.474-0.29-0.941-0.456-1.402c-0.024-0.068-0.053-0.136-0.078-0.205c-0.178-0.48-0.367-0.955-0.578-1.418
				c-0.001-0.002-0.002-0.004-0.003-0.006c-0.209-0.461-0.439-0.909-0.682-1.352c-0.038-0.066-0.073-0.135-0.11-0.201
				c-0.236-0.419-0.491-0.828-0.761-1.228c-0.053-0.078-0.108-0.156-0.162-0.234c-0.276-0.395-0.568-0.782-0.879-1.156
				c-0.052-0.063-0.106-0.122-0.159-0.185c-0.329-0.383-0.671-0.758-1.039-1.117c-0.008-0.006-0.014-0.014-0.021-0.02
				c0,0,0,0,0,0.001c-0.945-0.917-2.028-1.75-3.265-2.48c-15.621-8.749-22.658,13.475-22.954,22.103
				c-0.393,11.443,3.379,24.779,11.21,34.371c-1.03-0.839-2.235-1.49-3.319-1.49c-8.441-0.235-7.439,9.908-2.884,15.285
				c-5.386,1.348-9.003,3.45-9.003,6.354h-1.956l7.024,68.492h46.327l0.302-2.935h0.008l6.716-65.557h-2.648
				c0-2.296-2.7-4.133-6.911-5.482c1.565-1.665,2.645-3.787,2.821-5.814c0.387-6.764-4.377-7.207-9.005-5.202
				c7.73-10.206,14.85-20.952,20.695-32.242C512.585,322.122,518.207,310.43,517.981,298.289z"/>
			<g>
				<g>
					<path style="fill:#42B26A;" d="M473.134,366.19c-11.235-9.458-16.677-25.84-16.209-39.502
						c0.295-8.627,7.333-30.852,22.954-22.103c9.892,5.845,9.892,18.212,9.443,28.104c-0.676,10.119-3.043,29.68-1.798,29.905
						c1.245,0.225,7.419-59.808,16.186-69.7c3.6-4.272,9.893-8.994,15.964-7.42c5.846,1.348,7.42,7.645,7.644,12.815
						c0.226,12.141-5.396,23.833-11.017,34.177c-6.519,12.589-14.613,24.507-23.383,35.747"/>
				</g>
				<g>
					<path style="fill:#267F44;" d="M472.01,376.656c-10.487,7.645-20.414-17.455-7.193-17.088c2.022,0,4.495,2.249,5.395,3.821
						c-2.923-2.922,0.228-9.592,4.047-9.815c4.048-0.226,5.847,5.32,5.847,8.692c0.674-4.946,2.698-13.266,9.668-12.142
						c7.645,1.125,6.069,11.018,3.599,15.738c5.17-3.147,11.689-3.822,11.24,4.047c-0.449,5.172-6.745,11.019-12.141,8.096"/>
				</g>
				<g>
					<g>
						<path style="fill:#FF8C00;" d="M504.324,449.699h-44.327c-1.1,0-2.092-0.895-2.204-1.989l-6.617-64.514
							c-0.112-1.094,0.696-1.989,1.796-1.989h58.378"/>
					</g>
					<path style="fill:#633500;" d="M452.93,381.207c0-11.414,55.772-10.436,55.772,0H452.93z"/>
				</g>
				<polygon style="opacity:0.5;fill:#FFC48A;" points="481.552,381.207 481.552,446.764 504.633,446.764 511.35,381.207 				"/>
				<g>
					<path style="fill:none;" d="M495.4,357.593c15.236-26.793,29.035-60.038,27.856-70.314c-0.966-0.841-2.143-1.475-3.581-1.806
						c-6.071-1.574-12.364,3.147-15.964,7.42c-8.768,9.893-14.941,69.925-16.186,69.7c-1.245-0.226,1.122-19.786,1.798-29.905
						c0.448-9.892,0.448-22.259-9.443-28.104c-15.621-8.749-22.659,13.475-22.954,22.103c-0.468,13.662,4.974,30.044,16.209,39.502
						l16.466,1.684C490.917,365.508,492.791,362.182,495.4,357.593z"/>
					<path style="fill:#267F44;" d="M495.4,357.593c-2.609,4.589-4.483,7.915-5.801,10.281l3.319,0.339
						c8.77-11.24,16.864-23.158,23.383-35.747c5.621-10.344,11.243-22.036,11.017-34.177c-0.169-3.898-1.107-8.435-4.063-11.01
						C524.435,297.555,510.637,330.8,495.4,357.593z"/>
				</g>
				<g>
					<polygon style="fill:none;" points="488.121,346.615 488.121,346.614 488.121,346.614 					"/>
					<path style="fill:none;" d="M519.675,285.474c-6.071-1.574-12.364,3.147-15.964,7.42c-8.768,9.893-14.941,69.925-16.186,69.7
						c-0.234-0.043-0.34-0.773-0.355-1.994c-0.19,1.496-0.407,2.552-0.646,2.727c-1.002,0.734-10.274,0-10.274,0
						c7.584-23.505,6.36-47.676,6.896-56.263c-0.947-0.916-2.029-1.749-3.266-2.48c-15.621-8.749-22.659,13.475-22.954,22.103
						c-0.468,13.662,4.974,30.044,16.209,39.502l19.785,2.023c8.77-11.24,16.864-23.158,23.383-35.747
						c5.621-10.344,11.243-22.036,11.017-34.177C527.095,293.118,525.521,286.821,519.675,285.474z"/>
					<path style="fill:#267F44;" d="M486.523,363.327c0.239-0.176,0.456-1.231,0.646-2.727c-0.031-2.819,0.432-8.27,0.951-13.984
						v-0.001l0,0c0.452-4.956,0.947-10.111,1.201-13.926c0.393-8.655,0.441-19.206-6.178-25.624
						c-0.535,8.587,0.689,32.758-6.896,56.263C476.249,363.327,485.522,364.061,486.523,363.327z"/>
				</g>
			</g>
		</g>
		<g style="clip-path:url(#SVGID_00000000905465317093355840000002976040332114349985_);">
			<path style="fill:#0A5265;" d="M63.997,446.764v3.871c0,1.1,0.9,2,2,2h617.022c1.1,0,2-0.9,2-2v-3.871"/>
		</g>
	</g>
</g>
<g id="DESIGNED_BY_FREEPIK">
	<g>
		<g id="XMLID_57_">
			<g id="XMLID_76_">
				<path id="XMLID_84_" style="fill:#1C1C1B;" d="M385.103,465.465c-0.432,0.443-0.803,0.932-1.107,1.453l-0.465-0.24
					c-0.068-0.297-0.35-0.502-0.66-0.467c-0.33,0.039-0.566,0.34-0.529,0.67c0.039,0.332,0.34,0.568,0.67,0.529
					c0.066-0.008,0.127-0.025,0.184-0.053l0.451,0.234c-0.25,0.555-0.432,1.139-0.539,1.744l0.748,0.131
					c0.229-1.305,0.85-2.506,1.791-3.473L385.103,465.465z"/>
				<path id="XMLID_83_" style="fill:#1C1C1B;" d="M390.592,463.164c-0.172,0-0.342,0.006-0.51,0.016l-0.074-0.625
					c0.188-0.15,0.297-0.389,0.266-0.645c-0.045-0.393-0.402-0.674-0.795-0.629c-0.393,0.047-0.674,0.402-0.627,0.797
					c0.029,0.254,0.189,0.461,0.404,0.563l0.072,0.625c-0.713,0.115-1.402,0.332-2.059,0.645l0.326,0.686
					c0.936-0.447,1.941-0.674,2.996-0.674c0.496,0,0.992,0.053,1.475,0.158l0.16-0.742
					C391.691,463.223,391.143,463.164,390.592,463.164z"/>
				<path id="XMLID_82_" style="fill:#1C1C1B;" d="M397.193,465.711c0.332-0.041,0.566-0.342,0.525-0.672
					c-0.039-0.332-0.34-0.566-0.672-0.525c-0.309,0.037-0.535,0.303-0.529,0.607l-0.416,0.363c-0.418-0.43-0.891-0.813-1.408-1.139
					l-0.404,0.641c1.135,0.715,2.021,1.727,2.564,2.926l0.69-0.313c-0.25-0.555-0.566-1.072-0.941-1.545l0.402-0.352
					C397.065,465.715,397.129,465.719,397.193,465.711z"/>
				<path id="XMLID_81_" style="fill:#1C1C1B;" d="M390.045,473.371c-0.387,0.023-0.775,0.035-1.158,0.035
					c-0.879,0-1.732-0.061-2.478-0.18c-0.391-0.061-0.846-0.154-1.27-0.291c1.047,1.861,3.068,3.125,5.389,3.125
					c2.855,0,5.262-1.916,5.949-4.504c-0.682,0.449-1.506,0.826-2.459,1.123C392.838,473.047,391.463,473.287,390.045,473.371z"/>
				<path id="XMLID_77_" style="fill:#1C1C1B;" d="M390.592,464.68c-3.352,0-6.08,2.666-6.08,5.943c0,0.426,0.047,0.85,0.137,1.262
					c0.674,0.482,2.707,0.891,5.348,0.73c2.881-0.174,5.297-0.957,6.672-2.158c-0.004-0.195-0.02-0.391-0.045-0.582
					C396.244,466.914,393.65,464.68,390.592,464.68z M388.432,471.195c-1.02,0-1.85-0.83-1.85-1.85c0-1.022,0.83-1.852,1.85-1.852
					c1.02,0,1.85,0.83,1.85,1.852C390.281,470.365,389.451,471.195,388.432,471.195z M393.17,470.287
					c-0.75,0-1.361-0.611-1.361-1.361s0.611-1.359,1.361-1.359s1.359,0.609,1.359,1.359S393.92,470.287,393.17,470.287z"/>
			</g>
			<path id="XMLID_74_" style="fill:#1C1C1B;" d="M406.596,466.547c-0.295-0.115-0.807-0.309-1.383-0.238
				c-0.551,0.07-0.844,0.342-0.844,1.008v0.865h2.229v1.717h-2.229v5.455h-1.932v-5.455h-1.34v-1.717h1.34v-0.889
				c0-1.68,0.895-2.781,2.568-2.781c0.643,0,1.156,0.121,1.59,0.307V466.547z"/>
			<path id="XMLID_72_" style="fill:#1C1C1B;" d="M411.297,469.879c-0.176-0.029-0.357-0.047-0.525-0.047
				c-0.895,0-1.51,0.549-1.51,1.613v3.908h-1.932v-7.172h1.873v0.785c0.451-0.674,1.139-0.977,2.02-0.977
				c0.414,0,0.848,0.127,1.096,0.336L411.297,469.879z"/>
			<path id="XMLID_69_" style="fill:#1C1C1B;" d="M418.965,471.758c0,0.221-0.016,0.488-0.037,0.65h-5.084
				c0.207,1.037,0.932,1.488,1.842,1.488c0.623,0,1.295-0.252,1.815-0.69l1.133,1.244c-0.814,0.748-1.852,1.088-3.057,1.088
				c-2.199,0-3.725-1.496-3.725-3.752c0-2.258,1.48-3.797,3.627-3.797C417.543,467.99,418.957,469.522,418.965,471.758z
				 M413.852,471.092h3.174c-0.178-0.918-0.732-1.438-1.561-1.438C414.555,469.654,414.022,470.203,413.852,471.092z"/>
			<path id="XMLID_66_" style="fill:#1C1C1B;" d="M426.619,471.758c0,0.221-0.016,0.488-0.037,0.65h-5.086
				c0.207,1.037,0.934,1.488,1.844,1.488c0.621,0,1.295-0.252,1.813-0.69l1.133,1.244c-0.814,0.748-1.85,1.088-3.057,1.088
				c-2.199,0-3.723-1.496-3.723-3.752c0-2.258,1.48-3.797,3.627-3.797C425.197,467.99,426.611,469.522,426.619,471.758z
				 M421.504,471.092h3.176c-0.178-0.918-0.734-1.438-1.563-1.438C422.207,469.654,421.674,470.203,421.504,471.092z"/>
			<path id="XMLID_63_" style="fill:#1C1C1B;" d="M434.965,471.764c0,2.154-1.496,3.775-3.473,3.775
				c-0.961,0-1.643-0.377-2.109-0.932v3.707h-1.924v-10.133h1.887v0.793c0.467-0.586,1.154-0.984,2.139-0.984
				C433.469,467.99,434.965,469.611,434.965,471.764z M429.287,471.764c0,1.133,0.748,1.977,1.844,1.977
				c1.139,0,1.85-0.881,1.85-1.977c0-1.094-0.711-1.975-1.85-1.975C430.035,469.789,429.287,470.633,429.287,471.764z"/>
			<path id="XMLID_60_" style="fill:#1C1C1B;" d="M438.068,465.836c0,0.695-0.541,1.229-1.236,1.229
				c-0.697,0-1.229-0.533-1.229-1.229c0-0.695,0.531-1.244,1.229-1.244C437.527,464.592,438.068,465.141,438.068,465.836z
				 M437.809,475.353h-1.932v-7.172h1.932V475.353z"/>
			<path id="XMLID_58_" style="fill:#1C1C1B;" d="M441.031,470.736l2.703-2.555h2.367l-3.479,3.375l3.502,3.797h-2.377l-2.717-2.9
				v2.9H439.1v-10.658h1.932V470.736z"/>
		</g>
		<g>
			<path style="fill:#1C1C1B;" d="M309.412,475.289v-1.055c-0.527,0.719-1.391,1.23-2.387,1.23c-1.846,0-3.149-1.406-3.149-3.705
				c0-2.256,1.289-3.721,3.149-3.721c0.952,0,1.816,0.469,2.387,1.244v-3.764h1.099v9.77H309.412z M309.412,473.371v-3.209
				c-0.395-0.615-1.245-1.143-2.124-1.143c-1.42,0-2.27,1.172-2.27,2.74c0,1.566,0.85,2.725,2.27,2.725
				C308.167,474.484,309.017,473.986,309.412,473.371z"/>
			<path style="fill:#1C1C1B;" d="M311.932,471.744c0-2.051,1.465-3.705,3.486-3.705c2.139,0,3.398,1.67,3.398,3.793v0.279h-5.727
				c0.088,1.332,1.025,2.445,2.549,2.445c0.806,0,1.626-0.322,2.182-0.893l0.527,0.717c-0.703,0.703-1.655,1.084-2.812,1.084
				C313.44,475.465,311.932,473.957,311.932,471.744z M315.403,468.947c-1.509,0-2.256,1.273-2.314,2.357h4.644
				C317.718,470.25,317.015,468.947,315.403,468.947z"/>
			<path style="fill:#1C1C1B;" d="M319.607,474.352l0.571-0.791c0.469,0.543,1.362,1.012,2.329,1.012c1.085,0,1.67-0.514,1.67-1.217
				c0-1.713-4.38-0.658-4.38-3.281c0-1.098,0.952-2.035,2.636-2.035c1.202,0,2.051,0.453,2.623,1.025l-0.513,0.762
				c-0.424-0.514-1.201-0.895-2.109-0.895c-0.966,0-1.567,0.484-1.567,1.113c0,1.553,4.379,0.527,4.379,3.281
				c0,1.188-0.952,2.139-2.783,2.139C321.306,475.465,320.325,475.113,319.607,474.352z"/>
			<path style="fill:#1C1C1B;" d="M326.477,466.471c0-0.41,0.337-0.746,0.732-0.746c0.41,0,0.747,0.336,0.747,0.746
				c0,0.41-0.337,0.732-0.747,0.732C326.814,467.203,326.477,466.881,326.477,466.471z M326.667,475.289v-7.074h1.099v7.074H326.667
				z"/>
			<path style="fill:#1C1C1B;" d="M329.582,477.105l0.556-0.82c0.586,0.703,1.289,0.967,2.3,0.967c1.172,0,2.27-0.57,2.27-2.123
				v-1.012c-0.513,0.719-1.377,1.26-2.373,1.26c-1.846,0-3.149-1.377-3.149-3.662c0-2.27,1.289-3.676,3.149-3.676
				c0.952,0,1.802,0.469,2.373,1.244v-1.068h1.099v6.869c0,2.344-1.641,3.076-3.369,3.076
				C331.237,478.16,330.416,477.926,329.582,477.105z M334.708,473.254v-3.092c-0.381-0.615-1.23-1.143-2.109-1.143
				c-1.421,0-2.27,1.129-2.27,2.695c0,1.553,0.849,2.695,2.27,2.695C333.478,474.41,334.328,473.869,334.708,473.254z"/>
			<path style="fill:#1C1C1B;" d="M342.413,475.289v-4.629c0-1.244-0.63-1.641-1.582-1.641c-0.864,0-1.685,0.527-2.094,1.1v5.17
				h-1.099v-7.074h1.099v1.025c0.498-0.586,1.464-1.201,2.519-1.201c1.479,0,2.256,0.746,2.256,2.285v4.965H342.413z"/>
			<path style="fill:#1C1C1B;" d="M344.932,471.744c0-2.051,1.465-3.705,3.486-3.705c2.139,0,3.398,1.67,3.398,3.793v0.279h-5.727
				c0.088,1.332,1.025,2.445,2.548,2.445c0.806,0,1.626-0.322,2.183-0.893l0.527,0.717c-0.703,0.703-1.655,1.084-2.813,1.084
				C346.441,475.465,344.932,473.957,344.932,471.744z M348.404,468.947c-1.509,0-2.256,1.273-2.314,2.357h4.643
				C350.718,470.25,350.015,468.947,348.404,468.947z"/>
			<path style="fill:#1C1C1B;" d="M358.35,475.289v-1.055c-0.527,0.719-1.392,1.23-2.388,1.23c-1.845,0-3.149-1.406-3.149-3.705
				c0-2.256,1.289-3.721,3.149-3.721c0.952,0,1.817,0.469,2.388,1.244v-3.764h1.098v9.77H358.35z M358.35,473.371v-3.209
				c-0.396-0.615-1.245-1.143-2.124-1.143c-1.421,0-2.271,1.172-2.271,2.74c0,1.566,0.85,2.725,2.271,2.725
				C357.105,474.484,357.954,473.986,358.35,473.371z"/>
			<path style="fill:#1C1C1B;" d="M364.692,475.289v-9.77h1.099v3.764c0.571-0.775,1.421-1.244,2.388-1.244
				c1.845,0,3.149,1.465,3.149,3.721c0,2.299-1.304,3.705-3.149,3.705c-0.996,0-1.86-0.512-2.388-1.23v1.055H364.692z
				 M367.9,474.484c1.436,0,2.285-1.158,2.285-2.725c0-1.568-0.85-2.74-2.285-2.74c-0.864,0-1.728,0.527-2.109,1.143v3.209
				C366.171,473.986,367.036,474.484,367.9,474.484z"/>
			<path style="fill:#1C1C1B;" d="M372.528,477.063c0.161,0.072,0.425,0.117,0.601,0.117c0.483,0,0.806-0.162,1.055-0.748
				l0.469-1.068l-2.959-7.148h1.186l2.358,5.801l2.344-5.801h1.201l-3.545,8.51c-0.425,1.025-1.143,1.422-2.08,1.436
				c-0.234,0-0.601-0.043-0.806-0.104L372.528,477.063z"/>
		</g>
	</g>
</g>
</svg>
